<svg width="100" height="100" viewBox="0 0 100 100" fill="none" xmlns="http://www.w3.org/2000/svg">
<path d="M47.0402 87.4202C47.1669 87.3569 47.2619 87.2619 47.3252 87.1352C47.4519 87.0719 47.5785 87.0086 47.7052 86.9452C47.3885 86.4386 47.0085 86.2169 46.5652 86.2802H44.4752C44.2219 86.2169 43.9369 86.2169 43.6202 86.2802C43.3669 86.3436 43.1135 86.3119 42.8602 86.1852C42.7969 86.1219 42.7019 86.0586 42.5752 85.9952C42.4486 85.9952 42.3219 85.9636 42.1952 85.9002L41.7202 85.8052C41.0869 85.9319 40.5169 85.8369 40.0102 85.5202C40.3902 85.4569 40.7702 85.4252 41.1502 85.4252C41.5935 85.4252 42.0369 85.4252 42.4802 85.4252C42.7335 85.3619 42.9552 85.2986 43.1452 85.2352C43.3352 85.1719 43.4302 84.9502 43.4302 84.5702H44.8552C45.0452 84.5069 45.2352 84.4436 45.4252 84.3802C45.6152 84.3169 45.8369 84.2536 46.0902 84.1902C46.4069 84.1902 46.5336 83.9686 46.4702 83.5252C46.2169 83.5252 45.9636 83.5252 45.7102 83.5252C45.4569 83.4619 45.2352 83.3036 45.0452 83.0502C45.0452 83.0502 44.9502 83.0502 44.7602 83.0502C44.6335 83.0502 44.5385 83.1136 44.4752 83.2402C44.2219 83.4936 43.9052 83.6202 43.5252 83.6202C43.2086 83.5569 42.8919 83.5252 42.5752 83.5252C42.3852 83.4619 42.1952 83.4619 42.0052 83.5252C41.8152 83.5252 41.6252 83.5252 41.4352 83.5252C41.1819 83.6519 40.8652 83.7786 40.4852 83.9052C40.1685 83.9052 39.9469 83.8736 39.8202 83.8102C39.6302 83.5569 39.3135 83.5252 38.8702 83.7152C38.6169 83.3352 38.4269 83.1136 38.3002 83.0502C38.2369 82.9869 38.0152 82.9869 37.6352 83.0502C37.0652 83.2402 36.5269 83.3036 36.0202 83.2402C35.8935 83.1136 35.7035 83.0819 35.4502 83.1452C35.2602 83.2086 35.0702 83.2719 34.8802 83.3352C35.0069 83.5886 35.2285 83.6836 35.5452 83.6202C35.9252 83.5569 36.1152 83.7469 36.1152 84.1902C36.1152 84.1902 36.0835 84.1902 36.0202 84.1902C36.0202 84.2536 35.9885 84.2852 35.9252 84.2852C35.2919 84.2219 34.6269 84.1902 33.9302 84.1902C33.2969 84.1902 32.6319 84.1902 31.9352 84.1902C31.5552 84.1269 31.1752 84.0636 30.7952 84.0002C30.4785 83.8736 30.1302 83.7786 29.7502 83.7152C29.6869 83.7152 29.6235 83.6836 29.5602 83.6202C29.5602 83.5569 29.5285 83.5252 29.4652 83.5252C29.0219 83.2086 28.6735 83.0502 28.4202 83.0502C28.2302 83.0502 27.9452 83.1769 27.5652 83.4302C26.8052 83.0502 26.1085 82.6069 25.4752 82.1002C24.8419 81.5302 24.2085 80.9919 23.5752 80.4852C23.4485 80.3586 23.3219 80.2002 23.1952 80.0102C23.0685 79.8202 22.9102 79.6936 22.7202 79.6302C22.4669 79.4402 22.3402 79.2186 22.3402 78.9652C22.2769 78.7119 22.2769 78.4586 22.3402 78.2052C22.4669 77.9519 22.3719 77.7619 22.0552 77.6352C21.6752 77.3186 21.4219 76.9702 21.2952 76.5902C21.1052 76.1469 20.9469 75.7036 20.8202 75.2602C20.7569 75.0702 20.6935 74.9119 20.6302 74.7852C20.5035 74.5952 20.4085 74.4052 20.3452 74.2152V73.3602C20.3452 72.9802 20.5669 72.9169 21.0102 73.1702C21.5169 73.2336 21.9919 73.4552 22.4352 73.8352C22.8152 74.1519 23.2269 74.5002 23.6702 74.8802C23.8602 74.9436 23.9552 75.2286 23.9552 75.7352C24.0185 76.1786 24.3035 76.4952 24.8102 76.6852C24.9369 76.6852 25.0952 76.7802 25.2852 76.9702C26.0452 77.4769 26.8369 77.7619 27.6602 77.8252C28.2302 77.9519 28.8002 78.1102 29.3702 78.3002C29.9402 78.4269 30.5102 78.5219 31.0802 78.5852C31.3969 78.6486 31.6819 78.7752 31.9352 78.9652C32.1885 79.0919 32.4735 79.1236 32.7902 79.0602L31.9352 79.8202C32.1252 80.2002 32.3785 80.3902 32.6952 80.3902C33.0119 80.3269 33.3285 80.2952 33.6452 80.2952C33.5819 80.5486 33.5502 80.8019 33.5502 81.0552C33.5502 81.3086 33.4869 81.5619 33.3602 81.8152C33.2969 82.1952 33.0119 82.3219 32.5052 82.1952C32.3152 82.0686 32.1569 82.0369 32.0302 82.1002C31.9035 82.1002 31.7452 82.1002 31.5552 82.1002C31.1119 82.1002 30.8269 82.0369 30.7002 81.9102C30.0035 81.7202 29.3702 81.7836 28.8002 82.1002L28.8952 82.1952C29.2119 82.2586 29.5285 82.3536 29.8452 82.4802C30.1619 82.5436 30.4785 82.5752 30.7952 82.5752H31.6502C32.4735 82.9552 33.3602 83.0502 34.3102 82.8602C34.8169 82.7336 35.3552 82.6702 35.9252 82.6702C36.4952 82.6069 37.0969 82.5436 37.7302 82.4802C37.9202 82.4802 38.1102 82.5119 38.3002 82.5752C38.4902 82.5752 38.6802 82.6702 38.8702 82.8602C38.8702 82.9869 39.0286 83.0502 39.3452 83.0502C39.3452 83.0502 39.3769 83.0186 39.4402 82.9552C39.5035 82.8286 39.5352 82.7019 39.5352 82.5752V82.2902C40.8652 82.2902 42.2269 82.1002 43.6202 81.7202C43.9369 81.5936 44.2219 81.4352 44.4752 81.2452C44.7919 80.9919 45.0769 80.7702 45.3302 80.5802C45.2036 79.9469 45.0769 79.6302 44.9502 79.6302C44.8235 79.6302 44.5386 79.7886 44.0952 80.1052C43.6519 79.4719 43.0186 79.3452 42.1952 79.7252C41.6252 79.9786 41.0869 80.1369 40.5802 80.2002C40.3902 80.2002 40.1686 80.2002 39.9152 80.2002C39.7252 80.1369 39.5352 80.1052 39.3452 80.1052C39.2819 79.7886 39.4085 79.5669 39.7252 79.4402C40.0419 79.2502 40.0419 78.9969 39.7252 78.6802C39.9152 78.5536 40.0735 78.4586 40.2002 78.3952C40.3902 78.3319 40.6119 78.2686 40.8652 78.2052C41.1185 78.2052 41.3719 78.2052 41.6252 78.2052C41.9419 78.2052 42.2269 78.0786 42.4802 77.8252C42.1002 77.5086 41.7202 77.4452 41.3402 77.6352C41.0235 77.8252 40.7069 77.8886 40.3902 77.8252C40.3902 77.4452 40.2635 77.1286 40.0102 76.8752C40.3902 76.7486 40.7386 76.6852 41.0552 76.6852C41.3719 76.6219 41.6886 76.5586 42.0052 76.4952C42.7019 76.3052 43.4302 76.1152 44.1902 75.9252C45.0135 75.6719 45.8369 75.3869 46.6602 75.0702C47.6102 74.8802 48.3385 74.4369 48.8452 73.7402L49.4152 73.3602C50.1752 73.2969 50.4602 72.9169 50.2702 72.2202C50.2702 71.7769 50.4602 71.4602 50.8402 71.2702C51.3469 70.9536 51.8219 70.6052 52.2652 70.2252C52.7085 69.8452 53.1835 69.5286 53.6902 69.2752C54.0069 69.0852 54.2286 68.8319 54.3552 68.5152C54.4819 68.1352 54.5769 67.8186 54.6402 67.5652C54.7669 67.3119 54.8302 66.9636 54.8302 66.5202C54.6402 66.4569 54.4185 66.3619 54.1652 66.2352C53.9752 66.0452 53.7219 66.0136 53.4052 66.1402C53.0885 66.1402 52.7085 65.9819 52.2652 65.6652C51.6319 65.2852 51.0302 64.9052 50.4602 64.5252C49.8902 64.1452 49.2885 63.7336 48.6552 63.2902C48.4019 63.1636 48.1485 63.0369 47.8952 62.9102C47.6419 62.7836 47.3569 62.6569 47.0402 62.5302C45.9635 61.9602 44.9819 61.1686 44.0952 60.1552C43.1452 59.5219 42.2586 58.7619 41.4352 57.8752C41.1819 57.4952 40.8652 57.1469 40.4852 56.8302C40.1685 56.4502 39.8519 56.1336 39.5352 55.8802C39.4085 55.7536 39.2819 55.6269 39.1552 55.5002C39.0285 55.3102 38.9019 55.1202 38.7752 54.9302C38.4585 54.4236 38.1419 53.9169 37.8252 53.4102C37.5085 52.8402 37.0969 52.3336 36.5902 51.8902C36.4635 51.7002 36.3685 51.5102 36.3052 51.3202C36.2419 51.1302 36.2735 50.9086 36.4002 50.6552C35.9569 50.5286 35.6402 50.3069 35.4502 49.9902C35.2602 49.6102 35.0702 49.2936 34.8802 49.0402C34.8169 48.8502 34.7219 48.6602 34.5952 48.4702C34.5319 48.2802 34.4369 48.0902 34.3102 47.9002C33.9302 47.5202 33.8352 47.1402 34.0252 46.7602C34.0885 46.8869 34.1519 47.0452 34.2152 47.2352C34.3419 47.3619 34.4369 47.4886 34.5002 47.6152C34.8169 47.6152 35.1019 47.6786 35.3552 47.8052C35.3552 47.6152 35.3235 47.4252 35.2602 47.2352C35.2602 47.0452 35.2602 46.8552 35.2602 46.6652C35.1969 46.4752 35.1652 46.1269 35.1652 45.6202V44.3852C35.2285 43.7519 35.2919 43.1186 35.3552 42.4852C35.4185 41.7886 35.4819 41.0919 35.5452 40.3952C35.6085 40.0152 35.7035 39.6669 35.8302 39.3502C35.9569 39.0336 36.0519 38.6852 36.1152 38.3052C36.3685 37.6719 36.6219 37.0702 36.8752 36.5002C37.1285 35.9302 37.3819 35.3286 37.6352 34.6952L38.4902 33.3652C38.6169 33.1752 38.7435 33.0169 38.8702 32.8902C39.0602 32.7002 39.1869 32.4786 39.2502 32.2252C39.3135 32.0352 39.4085 31.8452 39.5352 31.6552C39.7252 31.4652 39.8835 31.3069 40.0102 31.1802C40.3902 30.8636 40.7386 30.5786 41.0552 30.3252C41.4352 30.0719 41.8152 29.7869 42.1952 29.4702C42.3852 29.3436 42.5752 29.2802 42.7652 29.2802C43.0186 29.2169 43.2402 29.2802 43.4302 29.4702C42.6702 30.0402 42.1952 30.7369 42.0052 31.5602L42.1002 31.7502C42.2269 31.6236 42.3536 31.5602 42.4802 31.5602C42.6069 31.5602 42.7019 31.5286 42.7652 31.4652C42.8919 31.3386 43.0185 31.2119 43.1452 31.0852C43.2719 30.8952 43.3669 30.7052 43.4302 30.5152C43.5569 30.5152 43.6202 30.4836 43.6202 30.4202C43.6835 30.3569 43.7152 30.3252 43.7152 30.3252C43.9686 30.3252 44.1269 30.2936 44.1902 30.2302C44.5702 30.0402 44.9185 29.8502 45.2352 29.6602C45.6152 29.4069 45.9952 29.1536 46.3752 28.9002L46.1852 28.7102C45.8052 28.7102 45.5835 28.6786 45.5202 28.6152C45.4569 28.5519 45.3935 28.3302 45.3302 27.9502C45.2669 27.8236 45.1719 27.6969 45.0452 27.5702C44.9819 27.3802 44.8869 27.1902 44.7602 27.0002L45.2352 26.5252C44.4752 25.9552 44.5069 25.4486 45.3302 25.0052C45.1402 24.7519 44.8869 24.6569 44.5702 24.7202C44.3802 24.8469 44.2219 24.9736 44.0952 25.1002C43.9686 25.2269 43.8102 25.3219 43.6202 25.3852C43.5569 25.4486 43.4619 25.4802 43.3352 25.4802C43.2086 25.4802 43.0819 25.5436 42.9552 25.6702C43.0819 25.2902 43.2402 25.0369 43.4302 24.9102C43.8102 24.4669 44.2219 24.0236 44.6652 23.5802C45.1085 23.1369 45.5519 22.7886 45.9952 22.5352C46.5019 22.0919 47.0086 21.7119 47.5152 21.3952C48.0852 21.0152 48.6552 20.6352 49.2252 20.2552C49.5419 20.0019 49.8586 19.7802 50.1752 19.5902C50.4919 19.3369 50.7769 19.0836 51.0302 18.8302C51.2836 18.6402 51.5369 18.4186 51.7902 18.1652C52.1069 17.8486 52.3919 17.5636 52.6452 17.3102C52.6452 17.2469 52.6769 17.2152 52.7402 17.2152C52.8035 17.1519 52.8669 17.0569 52.9302 16.9302C52.4235 17.0569 51.9485 17.2152 51.5052 17.4052C51.0619 17.5952 50.5869 17.6902 50.0802 17.6902C50.2069 17.3736 50.3652 17.1519 50.5552 17.0252L52.1702 16.4552C52.4236 16.3286 52.6452 16.2336 52.8352 16.1702C53.0252 16.1069 53.2469 16.0436 53.5002 15.9802C54.0069 15.8536 54.5452 15.7269 55.1152 15.6002C55.6852 15.4102 56.1919 15.2836 56.6352 15.2202C56.8252 15.0936 57.0152 14.9986 57.2052 14.9352C57.3952 14.8086 57.5852 14.6819 57.7752 14.5552C58.2185 14.3019 58.6302 14.3019 59.0102 14.5552C59.3269 14.7452 59.6119 14.9352 59.8652 15.1252C60.1819 15.2519 60.4035 15.4736 60.5302 15.7902C61.7335 15.9802 62.7152 16.6452 63.4752 17.7852C63.4752 17.7852 63.4752 17.8169 63.4752 17.8802C63.4752 17.8802 63.5069 17.8802 63.5702 17.8802L65.0902 19.4002C65.5335 20.0969 66.0402 20.7936 66.6102 21.4902C66.9902 21.9969 67.2436 22.5352 67.3702 23.1052C67.5602 23.6752 67.7502 24.2136 67.9402 24.7202C68.3835 25.7336 68.3835 26.7786 67.9402 27.8552C67.9402 27.9819 67.9086 28.1086 67.8452 28.2352C67.8452 28.3619 67.8769 28.4886 67.9402 28.6152C67.9402 28.9319 67.9719 29.1852 68.0352 29.3752C68.0985 29.5652 68.0035 29.8186 67.7502 30.1352C67.6869 30.1986 67.6552 30.3252 67.6552 30.5152C67.7185 30.7052 67.7502 30.8636 67.7502 30.9902H66.8002C66.2302 31.0536 66.1352 31.3386 66.5152 31.8452C66.7685 32.2886 66.6736 32.5736 66.2302 32.7002C65.9769 32.7636 65.8502 32.9852 65.8502 33.3652C65.8502 33.5552 65.7869 33.7769 65.6602 34.0302C65.5969 34.2202 65.5335 34.4419 65.4702 34.6952C65.4069 34.3152 65.3119 33.9986 65.1852 33.7452C65.1219 33.4919 65.0585 33.2386 64.9952 32.9852C64.9952 32.8586 64.9319 32.7952 64.8052 32.7952C64.7419 32.7319 64.6785 32.6686 64.6152 32.6052L64.2352 33.1752C64.1719 33.6186 64.1086 34.0619 64.0452 34.5052C63.9819 34.9486 63.9185 35.3919 63.8552 35.8352C63.7919 36.4686 63.7285 37.1019 63.6652 37.7352C63.6652 38.3686 63.4435 38.9702 63.0002 39.5402C62.7469 39.2869 62.6202 38.9702 62.6202 38.5902C62.6835 38.2102 62.6519 37.8302 62.5252 37.4502C62.3352 37.7036 62.1769 37.9886 62.0502 38.3052C61.9235 38.5586 61.7652 38.7802 61.5752 38.9702C61.4485 39.1602 61.2902 39.3819 61.1002 39.6352C60.9102 39.8886 60.6252 40.0786 60.2452 40.2052C60.1819 39.8252 60.1502 39.4769 60.1502 39.1602C60.1502 38.7802 60.0869 38.4636 59.9602 38.2102C59.9602 37.7036 59.8652 37.3552 59.6752 37.1652C59.6119 37.1019 59.5485 37.0069 59.4852 36.8802C59.4852 36.7536 59.4535 36.6586 59.3902 36.5952C59.3902 36.2786 59.3585 35.9936 59.2952 35.7402C59.1052 35.8036 58.8835 35.9619 58.6302 36.2152C58.6302 36.1519 58.5985 36.0886 58.5352 36.0252C58.5352 35.9619 58.5352 35.9302 58.5352 35.9302C58.5352 35.8036 58.5352 35.7086 58.5352 35.6452C58.5985 35.5186 58.6302 35.3602 58.6302 35.1702C58.4402 35.2969 58.1869 35.3602 57.8702 35.3602C58.1236 34.9802 58.2819 34.6002 58.3452 34.2202C58.4719 33.8402 58.4085 33.4286 58.1552 32.9852C58.0919 33.0486 58.0285 33.1436 57.9652 33.2702C57.9019 33.3969 57.8702 33.4919 57.8702 33.5552H57.7752C57.7119 33.3019 57.6802 33.0486 57.6802 32.7952C57.6802 32.5419 57.6169 32.2569 57.4902 31.9402C57.2369 31.9402 57.0152 31.9402 56.8252 31.9402C56.6352 31.9402 56.4136 32.0036 56.1602 32.1302C54.8936 32.3202 53.8169 32.6052 52.9302 32.9852C51.7269 33.3652 50.6502 33.9352 49.7002 34.6952C49.5102 34.8852 49.2885 35.1069 49.0352 35.3602C48.8452 35.5502 48.5919 35.7402 48.2752 35.9302C47.9585 36.1836 47.6736 36.5319 47.4202 36.9752C47.2302 37.3552 46.9769 37.7036 46.6602 38.0202C46.4069 38.5269 46.0902 39.0336 45.7102 39.5402C45.3936 40.0469 45.0769 40.5536 44.7602 41.0602C44.3802 41.5036 44.1269 41.6936 44.0002 41.6302C43.9369 41.5669 43.8419 41.8202 43.7152 42.3902C43.6519 42.6436 43.6835 42.9602 43.8102 43.3402C43.9369 43.7202 44.0319 44.1002 44.0952 44.4802C44.4119 45.1136 44.6969 45.7786 44.9502 46.4752C45.2669 47.1086 45.6469 47.7419 46.0902 48.3752C46.8502 49.2619 47.6102 50.1486 48.3702 51.0352C49.1935 51.8586 50.0485 52.6186 50.9352 53.3152C51.5685 53.8219 52.2019 54.3286 52.8352 54.8352C53.5319 55.2786 54.1969 55.7536 54.8302 56.2602C55.4635 56.6402 56.0652 57.0202 56.6352 57.4002C57.2686 57.7802 57.9019 58.1602 58.5352 58.5402L62.2402 61.0102C62.3669 61.0736 62.5569 61.2952 62.8102 61.6752C62.9369 61.9286 63.0952 62.1502 63.2852 62.3402C63.5385 62.5302 63.7919 62.7202 64.0452 62.9102C64.8052 63.2902 65.4385 63.7652 65.9452 64.3352C66.5152 64.9052 67.0219 65.5386 67.4652 66.2352C67.8452 66.8052 68.1302 67.4069 68.3202 68.0402C68.5735 68.6736 68.9219 69.2436 69.3652 69.7502C69.4285 69.8136 69.4285 69.9402 69.3652 70.1302C69.3652 70.3202 69.3969 70.5102 69.4602 70.7002C69.5869 70.7002 69.6819 70.7319 69.7452 70.7952C69.8719 70.8586 70.0302 70.8902 70.2202 70.8902C70.2202 71.1436 70.1885 71.5236 70.1252 72.0302C70.1252 72.5369 69.9986 73.4552 69.7452 74.7852C69.6185 74.8486 69.4919 74.9436 69.3652 75.0702C69.2386 75.1336 69.1119 75.2286 68.9852 75.3552C68.9852 75.7986 69.0169 76.1469 69.0802 76.4002C68.8269 76.4636 68.6685 76.4319 68.6052 76.3052C68.6052 76.1786 68.5419 76.0836 68.4152 76.0202C68.2885 75.7669 68.1302 75.6402 67.9402 75.6402C67.4336 75.7669 67.2436 75.9569 67.3702 76.2102C67.4336 76.4002 67.4019 76.5269 67.2752 76.5902C67.2119 76.6536 67.1169 76.7486 66.9902 76.8752C66.2935 77.3186 65.6285 78.0152 64.9952 78.9652C64.8052 79.4086 64.5202 79.7886 64.1402 80.1052C63.8235 80.3586 63.4752 80.6436 63.0952 80.9602C63.0319 81.0236 62.9052 81.0869 62.7152 81.1502C62.5885 81.2136 62.4302 81.2452 62.2402 81.2452C61.4802 81.0552 60.9735 81.2769 60.7202 81.9102C60.7202 82.2902 60.5302 82.5436 60.1502 82.6702C59.9602 82.6702 59.8652 82.7969 59.8652 83.0502C59.8019 83.3036 59.6752 83.5252 59.4852 83.7152C59.4219 83.7786 59.3269 83.8419 59.2002 83.9052C59.1369 83.9052 59.0419 83.9686 58.9152 84.0952H58.7252C58.2819 84.4752 57.8069 84.4119 57.3002 83.9052C57.0469 83.9686 56.8252 84.0002 56.6352 84.0002C56.4452 84.0636 56.2869 84.1269 56.1602 84.1902C55.8436 84.3169 55.5585 84.4436 55.3052 84.5702C55.0519 84.7602 54.7985 84.9186 54.5452 85.0452C54.4819 85.1086 54.4185 85.1719 54.3552 85.2352C54.2919 85.3619 54.2285 85.4252 54.1652 85.4252C53.8485 85.3619 53.5952 85.3936 53.4052 85.5202C53.2785 85.7102 53.1202 85.8369 52.9302 85.9002C52.7402 86.0269 52.5502 86.0902 52.3602 86.0902C52.1702 86.0902 51.9802 86.0902 51.7902 86.0902C51.5369 86.3436 51.2519 86.4702 50.9352 86.4702C50.6819 86.5336 50.3969 86.5969 50.0802 86.6602C49.8902 86.7236 49.7002 86.7869 49.5102 86.8502C49.3202 86.9136 49.1302 86.9769 48.9402 87.0402C48.6235 87.1036 48.3069 87.1669 47.9902 87.2302C47.6736 87.3569 47.3569 87.4202 47.0402 87.4202ZM27.4702 79.7252C27.7235 79.8519 27.8819 79.8202 27.9452 79.6302C27.6285 79.1236 27.1219 78.9019 26.4252 78.9652C26.4252 79.2819 26.5519 79.4719 26.8052 79.5352C27.0585 79.5986 27.2802 79.6619 27.4702 79.7252ZM33.6452 79.0602C33.8985 78.9336 34.2152 78.9019 34.5952 78.9652C34.2152 78.9652 33.8985 78.9969 33.6452 79.0602ZM38.8702 77.0652V76.8752C38.9969 76.8752 39.0919 76.8752 39.1552 76.8752C39.2819 76.8752 39.4085 76.8752 39.5352 76.8752V76.9702C39.4085 76.9702 39.2819 77.0019 39.1552 77.0652C39.0919 77.0652 38.9969 77.0652 38.8702 77.0652ZM51.7902 86.0902C51.9169 85.9636 52.0436 85.8686 52.1702 85.8052C52.3602 85.8052 52.4552 85.6786 52.4552 85.4252C52.1385 85.2986 51.9169 85.2352 51.7902 85.2352C51.7269 85.2986 51.5685 85.5202 51.3152 85.9002C51.5685 85.9002 51.7269 85.9636 51.7902 86.0902ZM46.1852 80.5802C46.5652 80.5169 46.9452 80.4536 47.3252 80.3902C47.7685 80.3269 48.1802 80.1686 48.5602 79.9152C48.7502 79.9152 48.8452 79.8202 48.8452 79.6302C48.8452 79.5036 48.7819 79.4086 48.6552 79.3452C48.5919 79.2186 48.5285 79.1236 48.4652 79.0602C48.3385 79.0602 48.2119 79.0919 48.0852 79.1552C47.9585 79.2186 47.8319 79.2502 47.7052 79.2502C47.5785 79.2502 47.4519 79.2819 47.3252 79.3452C47.2619 79.3452 47.1669 79.3452 47.0402 79.3452C46.5969 79.2819 46.3119 79.3452 46.1852 79.5352C46.1219 79.6619 46.1219 80.0102 46.1852 80.5802ZM59.9602 83.8102C59.8969 83.6202 59.8652 83.3669 59.8652 83.0502C59.8652 83.1769 59.9285 83.2719 60.0552 83.3352C60.1819 83.3986 60.1502 83.5569 59.9602 83.8102ZM61.0052 83.8102C61.0052 83.1769 61.2902 82.8602 61.8602 82.8602C61.9235 82.8602 61.9552 82.8919 61.9552 82.9552C61.8919 83.0819 61.7652 83.2086 61.5752 83.3352C61.3852 83.4619 61.1952 83.6202 61.0052 83.8102ZM33.2652 43.2452C33.0752 42.9286 33.0119 42.6119 33.0752 42.2952C33.2019 41.9786 33.2652 41.6302 33.2652 41.2502C33.4552 41.5669 33.5502 41.8519 33.5502 42.1052C33.6135 42.3586 33.6452 42.6119 33.6452 42.8652C33.6452 42.9286 33.5819 42.9919 33.4552 43.0552C33.3919 43.1186 33.3285 43.1819 33.2652 43.2452ZM35.6402 35.7402C35.5769 35.6136 35.5135 35.5186 35.4502 35.4552C35.3869 35.3286 35.3235 35.2019 35.2602 35.0752C35.4502 34.9486 35.6402 34.8219 35.8302 34.6952C36.0202 34.5686 36.2419 34.4419 36.4952 34.3152C36.3685 34.8219 36.2419 35.2336 36.1152 35.5502C36.1152 35.6136 36.0519 35.6769 35.9252 35.7402C35.7985 35.7402 35.7035 35.7402 35.6402 35.7402ZM37.6352 32.9852C37.3819 32.2252 37.6669 31.8136 38.4902 31.7502C38.4269 32.1936 38.1419 32.6052 37.6352 32.9852ZM44.5702 29.2802C44.5069 29.0902 44.4752 28.9952 44.4752 28.9952C44.4752 28.9319 44.5702 28.9002 44.7602 28.9002C44.7602 28.9002 44.7602 28.9319 44.7602 28.9952C44.8235 28.9952 44.8552 28.9952 44.8552 28.9952L44.5702 29.2802ZM48.2752 27.3802C48.5919 27.2536 48.8769 27.1586 49.1302 27.0952C49.3836 26.9686 49.5736 26.7152 49.7002 26.3352C49.2569 26.2086 48.9719 26.2402 48.8452 26.4302C48.7819 26.5569 48.5919 26.8736 48.2752 27.3802ZM47.4202 26.6202C47.8636 26.5569 48.2436 26.3036 48.5602 25.8602C48.8135 25.4802 49.1619 25.4486 49.6052 25.7652C49.7319 25.8919 49.8902 25.9869 50.0802 26.0502C50.2702 26.1136 50.4602 26.2086 50.6502 26.3352C50.9669 26.0819 51.2519 25.8286 51.5052 25.5752C51.8219 25.2586 52.1702 25.0686 52.5502 25.0052C52.9302 24.8786 53.1202 24.6252 53.1202 24.2452C53.3102 24.0552 53.4052 23.7702 53.4052 23.3902C53.3419 23.2636 53.2469 23.1686 53.1202 23.1052C53.0569 22.9786 52.9935 22.8519 52.9302 22.7252C53.2469 22.2186 53.5635 22.0919 53.8802 22.3452C54.2602 22.5352 54.6085 22.6302 54.9252 22.6302C54.9885 22.4402 55.0519 22.2502 55.1152 22.0602C55.1785 21.8702 55.2735 21.6486 55.4002 21.3952C55.2102 21.3952 55.0519 21.3952 54.9252 21.3952C54.7985 21.3319 54.6719 21.3319 54.5452 21.3952C54.2285 21.4586 53.9119 21.5536 53.5952 21.6802C53.2786 21.7436 52.9619 21.8069 52.6452 21.8702C52.3919 21.9336 52.2019 22.0286 52.0752 22.1552C51.9486 22.2819 51.8852 22.5352 51.8852 22.9152C52.2652 23.1686 52.4552 23.3902 52.4552 23.5802C52.5185 23.7069 52.3919 23.9286 52.0752 24.2452C51.9486 24.1186 51.8219 23.9286 51.6952 23.6752L50.6502 24.7202C50.4602 24.5302 50.1752 24.4669 49.7952 24.5302C49.4785 24.5936 49.2886 24.3719 49.2252 23.8652C48.6552 23.9919 48.1485 24.1819 47.7052 24.4352C47.2619 24.6252 46.8819 24.9419 46.5652 25.3852C46.5019 25.5119 46.4069 25.6386 46.2802 25.7652C46.2169 25.8286 46.1219 25.9236 45.9952 26.0502C46.4385 26.3036 46.7869 26.2402 47.0402 25.8602C47.1669 25.7969 47.2936 25.7019 47.4202 25.5752C47.6102 25.4486 47.8002 25.3536 47.9902 25.2902C48.1802 25.6069 48.1169 25.7652 47.8002 25.7652C47.4202 25.8286 47.2936 26.1136 47.4202 26.6202ZM53.5002 24.7202H54.0702C53.9436 24.6569 53.8802 24.5936 53.8802 24.5302C53.8169 24.5936 53.6902 24.6252 53.5002 24.6252C53.5002 24.6252 53.5002 24.6569 53.5002 24.7202ZM47.9902 18.5452C48.3069 18.1019 48.4969 17.8802 48.5602 17.8802C48.6869 17.8169 48.9085 17.8802 49.2252 18.0702C49.0352 18.1336 48.8452 18.2286 48.6552 18.3552C48.4652 18.4186 48.2436 18.4819 47.9902 18.5452Z" fill="white"/>
</svg>
